<?xml version="1.0" encoding="UTF-8" standalone="no"?>
<!-- Created with Inkscape (http://www.inkscape.org/) -->

<svg
   xmlns:dc="http://purl.org/dc/elements/1.1/"
   xmlns:cc="http://creativecommons.org/ns#"
   xmlns:rdf="http://www.w3.org/1999/02/22-rdf-syntax-ns#"
   xmlns:svg="http://www.w3.org/2000/svg"
   xmlns="http://www.w3.org/2000/svg"
   xmlns:sodipodi="http://sodipodi.sourceforge.net/DTD/sodipodi-0.dtd"
   xmlns:inkscape="http://www.inkscape.org/namespaces/inkscape"
   width="605.06696"
   height="739.05542"
   id="svg2"
   version="1.1"
   inkscape:version="0.48.2 r9819"
   sodipodi:docname="Reagenzglas.svg"
   inkscape:export-filename="/Users/Jan/Desktop/Reagenzglas.png"
   inkscape:export-xdpi="300"
   inkscape:export-ydpi="300">
  <defs
     id="defs4" />
  <sodipodi:namedview
     id="base"
     pagecolor="#ffffff"
     bordercolor="#666666"
     borderopacity="1.0"
     inkscape:pageopacity="0.0"
     inkscape:pageshadow="2"
     inkscape:zoom="0.7"
     inkscape:cx="302.71443"
     inkscape:cy="486.21002"
     inkscape:document-units="px"
     inkscape:current-layer="layer1"
     showgrid="false"
     showguides="true"
     inkscape:guide-bbox="true"
     inkscape:window-width="1633"
     inkscape:window-height="1006"
     inkscape:window-x="47"
     inkscape:window-y="0"
     inkscape:window-maximized="1"
     inkscape:snap-global="true"
     fit-margin-top="0"
     fit-margin-left="0"
     fit-margin-right="0"
     fit-margin-bottom="0">
    <sodipodi:guide
       orientation="0,1"
       position="140.80134,117.06286"
       id="guide3944" />
    <sodipodi:guide
       orientation="0,1"
       position="186.3489,33.409875"
       id="guide3946" />
    <sodipodi:guide
       orientation="1,0"
       position="33.310793,133.92005"
       id="guide3948" />
    <sodipodi:guide
       orientation="1,0"
       position="571.21702,165.73986"
       id="guide3950" />
    <sodipodi:guide
       orientation="0,1"
       position="241.65476,859.46212"
       id="guide3972" />
  </sodipodi:namedview>
  <metadata
     id="metadata7">
    <rdf:RDF>
      <cc:Work
         rdf:about="">
        <dc:format>image/svg+xml</dc:format>
        <dc:type
           rdf:resource="http://purl.org/dc/dcmitype/StillImage" />
        <dc:title />
      </cc:Work>
    </rdf:RDF>
  </metadata>
  <g
     inkscape:label="Ebene 1"
     inkscape:groupmode="layer"
     id="layer1"
     transform="translate(-81.341517,-248.22678)">
    <path
       style="fill:#000000;stroke:none"
       d="m 288.25,248.24995 c -44.01315,0.58317 -41.28807,60.60131 2.875,61.4375 -1.10162,67.32577 -1.00599,68.98962 -1.4375,162.84375 -77.03614,81.6638 -151.42268,197.44928 -190.53125,315.03125 -20.71248,59.38399 -25.21159,97.80838 -3.59375,124.875 25.44702,31.86098 69.75792,49.0946 118.46875,58.9375 56.97504,9.65104 113.29751,15.20854 169.53125,15.90625 0.20867,-0.002 0.41633,0.003 0.625,0 56.23313,-0.69781 112.55683,-6.25531 169.53125,-15.90625 48.71083,-9.8429 93.02173,-27.07652 118.46875,-58.9375 21.61784,-27.06662 17.11873,-65.49101 -3.59375,-124.875 C 629.48518,669.98053 555.09864,554.19505 478.0625,472.53125 476.39026,416.18822 476.88613,366.24819 476.625,309.6875 c 44.16307,-0.83619 46.88815,-60.85433 2.875,-61.4375 -65.67038,0.0832 -131.55853,-0.0811 -191.25,-5e-5 z m 29.4375,19.56255 132.375,0 c 40.23796,-0.12889 40.44525,24.90682 0,25 -0.28614,29.00737 -0.4263,57.06925 -0.46875,84.5625 0.47348,36.62828 0.52342,74.79716 0.46875,106.4375 90.19507,88.74825 206.97594,282.68839 208.5625,385.375 1.10543,35.62945 -34.43367,51.93441 -79.1875,66.71875 -44.05463,13.72176 -118.53866,23.05744 -194.5625,23.8125 l 0,0.0312 c -0.33349,-0.003 -0.66656,0.003 -1,0 -0.33344,0.003 -0.66651,-0.003 -1,0 l 0,-0.0312 c -76.02384,-0.75506 -150.50787,-10.09074 -194.5625,-23.8125 -44.75383,-14.78434 -80.29293,-31.0893 -79.1875,-66.71875 1.58656,-102.68661 118.36743,-296.62675 208.5625,-385.375 -0.0709,-35.49936 0.12082,-70.97264 0.25,-106.4375 0.30157,-29.16054 -0.008,-59.57073 -0.25,-84.5625 -41.51668,-0.0932 -42.73796,-25.12889 0,-25 z"
       id="path3051"
       inkscape:connector-curvature="0"
       sodipodi:nodetypes="ccccsccccsccccccccccccccccccccccc" />
    <path
       style="fill:#b3ff19;fill-opacity:1;stroke:none"
       d="M 652.55854,870.21932 C 652.35368,902.55784 602.41543,945.67165 387.3935,953.87231 208.32056,949.20273 116.40159,913.39324 114.65231,870.21932 L 614.67782,743.95025 c 24.26548,48.29693 33.71058,88.68966 37.88072,126.26907 z"
       id="path3952"
       inkscape:connector-curvature="0"
       sodipodi:nodetypes="ccccc" />
    <path
       style="font-size:155.54283142px;font-style:normal;font-variant:normal;font-weight:bold;font-stretch:normal;line-height:125%;letter-spacing:0px;word-spacing:0px;fill:#000000;fill-opacity:1;stroke:none;font-family:Open Sans;-inkscape-font-specification:Open Sans Bold"
       d="m 484.11343,641.80843 -17.67204,4.46796 -32.478,122.73911 17.67202,-4.46796 32.47802,-122.73911 z m -70.81666,16.84105 c -1.92388,0.0983 -3.92284,0.4337 -5.99669,0.95844 -16.93445,4.28519 -22.56766,17.62729 -16.89151,40.0592 2.7822,10.9952 7.12416,18.85644 13.01988,23.5797 5.8833,4.67428 12.88349,5.9762 20.98259,3.92677 8.44265,-2.13626 14.13836,-6.55939 17.07863,-13.3097 2.92779,-6.79925 2.9495,-15.83577 0.0928,-27.12548 -2.73255,-10.79868 -7.05497,-18.54287 -12.98733,-23.2048 -4.42181,-3.5424 -9.52677,-5.1792 -15.2984,-4.88413 z m -1.06859,16.16007 c 4.3235,-0.32886 7.92868,5.23923 10.83975,16.74351 3.12995,12.36959 2.3457,19.15984 -2.36647,20.35214 -2.45429,0.62109 -4.64341,-0.43824 -6.54244,-3.19591 -1.86239,-2.81907 -3.56377,-7.34198 -5.14118,-13.57591 -1.5774,-6.23375 -2.21582,-11.00717 -1.89358,-14.27473 0.3589,-3.32886 1.77508,-5.2999 4.22937,-5.92104 0.2945,-0.0746 0.58631,-0.10614 0.87455,-0.12806 z m -69.02538,1.80346 c -2.87328,0.10022 -5.85958,0.52699 -8.96423,1.31255 -12.7622,3.22945 -21.07755,10.12797 -24.92783,20.71216 -3.86274,10.53525 -3.40208,25.31188 1.40466,44.30783 4.60801,18.21073 11.24318,31.19447 19.88601,38.93084 8.69189,7.72398 19.2305,10.00072 31.64914,6.85832 12.81122,-3.24176 21.17113,-10.15943 25.02148,-20.74373 3.89932,-10.59665 3.44683,-25.28968 -1.31014,-44.08944 -4.59567,-18.16149 -11.2766,-31.15169 -20.04238,-38.96153 -6.53758,-5.86649 -14.09686,-8.62788 -22.71671,-8.327 z m 157.80297,5.94919 c -2.35795,-0.0101 -4.84189,0.30753 -7.43418,0.96347 -16.93452,4.28516 -22.56776,17.62726 -16.89152,40.0592 2.7697,10.94609 7.12387,18.79392 13.01968,23.5172 5.88321,4.67425 12.85214,5.97629 20.95133,3.92688 8.44258,-2.13629 14.13829,-6.55941 17.07864,-13.30969 2.92771,-6.79927 2.96846,-15.8225 0.12424,-27.06309 -2.73263,-10.79871 -7.05506,-18.54293 -12.98733,-23.20481 -4.05339,-3.24721 -8.67339,-4.86649 -13.86091,-4.88916 z m -159.23555,13.36843 c 4.04944,-0.0857 7.60408,1.99108 10.70925,6.21264 3.85835,5.13449 7.47362,14.2898 10.81478,27.49368 3.30382,13.05677 4.52355,22.78677 3.63312,29.175 -0.89052,6.38828 -4.00215,10.25365 -9.30333,11.59504 -5.39941,1.36629 -9.9594,-0.49828 -13.70716,-5.60844 -3.71114,-5.1716 -7.25515,-14.35291 -10.59626,-27.55693 -3.34113,-13.20389 -4.58111,-22.97283 -3.72728,-29.29966 0.84137,-6.37575 3.953,-10.24111 9.30332,-11.59503 0.98477,-0.24918 1.93906,-0.39653 2.87356,-0.4163 z m -73.81096,0.57014 -18.70238,4.72157 -27.71683,36.40946 14.44445,10.91839 9.8607,-13.06574 c 1.17446,-1.55058 3.17518,-4.69121 5.99838,-9.42723 l 2.44562,11.27277 2.37964,10.27299 15.78001,62.28905 22.73011,-5.73562 -27.2197,-107.65564 z m 230.54043,2.22652 c 4.32344,-0.32889 7.92871,5.27046 10.83986,16.77478 3.12986,12.36956 2.34551,19.12854 -2.36657,20.32087 -2.45437,0.62106 -4.64351,-0.43828 -6.54245,-3.19593 -1.86245,-2.81907 -3.56386,-7.342 -5.14117,-13.57588 -1.57748,-6.23378 -2.2158,-10.97596 -1.89347,-14.24347 0.3588,-3.3289 1.77489,-5.33122 4.22924,-5.9523 0.2945,-0.0745 0.58633,-0.10614 0.87456,-0.12807 z"
       id="text3954"
       inkscape:connector-curvature="0" />
  </g>
</svg>
